<?xml version="1.0" encoding="utf-8"?>
<!-- Generator: Adobe Illustrator 21.1.0, SVG Export Plug-In . SVG Version: 6.00 Build 0)  -->
<!DOCTYPE svg PUBLIC "-//W3C//DTD SVG 1.1//EN" "http://www.w3.org/Graphics/SVG/1.1/DTD/svg11.dtd" [
	<!ENTITY ns_extend "http://ns.adobe.com/Extensibility/1.0/">
	<!ENTITY ns_ai "http://ns.adobe.com/AdobeIllustrator/10.0/">
	<!ENTITY ns_graphs "http://ns.adobe.com/Graphs/1.0/">
	<!ENTITY ns_vars "http://ns.adobe.com/Variables/1.0/">
	<!ENTITY ns_imrep "http://ns.adobe.com/ImageReplacement/1.0/">
	<!ENTITY ns_sfw "http://ns.adobe.com/SaveForWeb/1.0/">
	<!ENTITY ns_custom "http://ns.adobe.com/GenericCustomNamespace/1.0/">
	<!ENTITY ns_adobe_xpath "http://ns.adobe.com/XPath/1.0/">
]>
<svg version="1.1" id="Layer_1" xmlns:x="&ns_extend;" xmlns:i="&ns_ai;" xmlns:graph="&ns_graphs;"
	 xmlns="http://www.w3.org/2000/svg" xmlns:xlink="http://www.w3.org/1999/xlink" x="0px" y="0px" viewBox="0 0 1080 1000"
	 style="enable-background:new 0 0 1080 1000;" xml:space="preserve">
<style type="text/css">
	.st0{opacity:0.2;clip-path:url(#SVGID_2_);}
	.st1{fill:#0DF9FF;}
	.st2{opacity:0.2;}
</style>
<switch>
	<g i:extraneous="self">
		<g>
			<defs>
				<rect id="SVGID_1_" x="-0.1" width="1080.4" height="535.4"/>
			</defs>
			<clipPath id="SVGID_2_">
				<use xlink:href="#SVGID_1_"  style="overflow:visible;"/>
			</clipPath>
			<g class="st0">
				<rect x="20.7" y="489.8" class="st1" width="15.7" height="89"/>
				<rect x="118.2" y="236.6" class="st1" width="15.7" height="595.5"/>
				<rect x="166.9" y="281" class="st1" width="15.7" height="506.6"/>
				<rect x="215.7" y="309.1" class="st1" width="15.7" height="450.4"/>
				<rect x="264.4" y="337.6" class="st1" width="15.7" height="393.4"/>
				<rect x="313.2" y="368.3" class="st1" width="15.7" height="332.1"/>
				<rect x="361.9" y="404.5" class="st1" width="15.7" height="259.6"/>
				<rect x="410.6" y="381.9" class="st1" width="15.7" height="304.8"/>
				<rect x="459.4" y="344.4" class="st1" width="15.7" height="379.9"/>
				<rect x="508.1" y="267.5" class="st1" width="15.7" height="533.6"/>
				<rect x="605.6" y="253.4" class="st1" width="15.7" height="561.9"/>
				<rect x="654.3" y="309.1" class="st1" width="15.7" height="450.4"/>
				<rect x="703.1" y="374.7" class="st1" width="15.7" height="319.3"/>
				<rect x="751.8" y="429.3" class="st1" width="15.7" height="210"/>
				<rect x="849.3" y="404.5" class="st1" width="15.7" height="259.6"/>
				<rect x="898" y="368.3" class="st1" width="15.7" height="332.1"/>
				<rect x="946.8" y="429.3" class="st1" width="15.7" height="210"/>
				<rect x="995.5" y="488.8" class="st1" width="15.7" height="91"/>
				<rect x="1044.2" y="517.9" class="st1" width="15.7" height="32.9"/>
				<rect x="800.6" y="488.8" class="st1" width="15.7" height="91"/>
				<rect x="556.9" y="145.9" class="st1" width="15.7" height="776.8"/>
				<rect x="69.5" y="404.5" class="st1" width="15.7" height="259.6"/>
			</g>
		</g>
		<g class="st2">
			<rect x="20.7" y="489.8" class="st1" width="15.7" height="89"/>
			<rect x="118.2" y="236.6" class="st1" width="15.7" height="595.5"/>
			<rect x="166.9" y="281" class="st1" width="15.7" height="506.6"/>
			<rect x="215.7" y="309.1" class="st1" width="15.7" height="450.4"/>
			<rect x="264.4" y="337.6" class="st1" width="15.7" height="393.4"/>
			<rect x="313.2" y="368.3" class="st1" width="15.7" height="332.1"/>
			<rect x="361.9" y="404.5" class="st1" width="15.7" height="259.6"/>
			<rect x="410.6" y="381.9" class="st1" width="15.7" height="304.8"/>
			<rect x="459.4" y="344.4" class="st1" width="15.7" height="379.9"/>
			<rect x="508.1" y="267.5" class="st1" width="15.7" height="533.6"/>
			<rect x="605.6" y="253.4" class="st1" width="15.7" height="561.9"/>
			<rect x="654.3" y="309.1" class="st1" width="15.7" height="450.4"/>
			<rect x="703.1" y="374.7" class="st1" width="15.7" height="319.3"/>
			<rect x="751.8" y="429.3" class="st1" width="15.7" height="210"/>
			<rect x="849.3" y="404.5" class="st1" width="15.7" height="259.6"/>
			<rect x="898" y="368.3" class="st1" width="15.7" height="332.1"/>
			<rect x="946.8" y="429.3" class="st1" width="15.7" height="210"/>
			<rect x="995.5" y="488.8" class="st1" width="15.7" height="91"/>
			<rect x="1044.2" y="517.9" class="st1" width="15.7" height="32.9"/>
			<rect x="800.6" y="488.8" class="st1" width="15.7" height="91"/>
			<rect x="556.9" y="145.9" class="st1" width="15.7" height="776.8"/>
			<rect x="69.5" y="404.5" class="st1" width="15.7" height="259.6"/>
		</g>
	</g>
</switch>
</svg>
